<svg width="41" height="41" viewBox="0 0 41 41" fill="none" xmlns="http://www.w3.org/2000/svg">
<path d="M34.625 4.59863H5.88512C5.19396 4.59863 4.63556 5.15723 4.63556 5.84863V34.5986C4.63556 35.29 5.19396 35.8486 5.88512 35.8486H34.625C35.3162 35.8486 35.8746 35.29 35.8746 34.5986V5.84863C35.8746 5.15723 35.3162 4.59863 34.625 4.59863ZM31.0169 13.7197H28.5217C26.5654 13.7197 26.1866 14.6494 26.1866 16.0166V19.0283H30.8568L30.2477 23.7432H26.1866V35.8486H21.3172V23.7471H17.2444V19.0283H21.3172V15.5518C21.3172 11.5166 23.7812 9.31738 27.3815 9.31738C29.1074 9.31738 30.5874 9.44629 31.0208 9.50488V13.7197H31.0169Z" fill="#FBFBFB"/>
</svg>
