<svg width="41" height="41" viewBox="0 0 41 41" fill="none" xmlns="http://www.w3.org/2000/svg">
<g clip-path="url(#clip0_12_191)">
<path fill-rule="evenodd" clip-rule="evenodd" d="M11.055 2.33363C13.0093 2.24363 13.6325 2.22363 18.6107 2.22363C23.589 2.22363 24.2121 2.2453 26.1647 2.33363C28.1174 2.42197 29.4502 2.73363 30.6165 3.1853C31.8377 3.64697 32.9457 4.36863 33.862 5.30197C34.795 6.21697 35.5148 7.32363 35.9746 8.54697C36.4278 9.71363 36.7377 11.047 36.8277 12.997C36.9176 14.9553 36.9376 15.5786 36.9376 20.557C36.9376 25.537 36.916 26.1603 36.8277 28.1153C36.7394 30.0653 36.4278 31.3986 35.9746 32.5653C35.5148 33.7888 34.7938 34.8973 33.862 35.8136C32.9457 36.747 31.8377 37.467 30.6165 37.927C29.4502 38.3803 28.1174 38.6903 26.1681 38.7803C24.2121 38.8703 23.589 38.8903 18.6107 38.8903C13.6325 38.8903 13.0093 38.8686 11.055 38.7803C9.10572 38.692 7.77285 38.3803 6.6066 37.927C5.38356 37.4669 4.27545 36.7457 3.3594 35.8136C2.42703 34.8981 1.70551 33.7901 1.24514 32.567C0.793635 31.4003 0.483743 30.067 0.393775 28.117C0.303806 26.1586 0.283813 25.5353 0.283813 20.557C0.283813 15.577 0.305473 14.9536 0.393775 13.0003C0.482077 11.047 0.793635 9.71363 1.24514 8.54697C1.70619 7.32377 2.42826 6.21582 3.36107 5.3003C4.27581 4.3678 5.38281 3.64604 6.60493 3.1853C7.77119 2.73363 9.10405 2.42363 11.0534 2.33363H11.055ZM26.0164 5.63363C24.0838 5.5453 23.504 5.52697 18.6107 5.52697C13.7174 5.52697 13.1376 5.5453 11.205 5.63363C9.41727 5.7153 8.44762 6.01363 7.80118 6.2653C6.94648 6.59863 6.33502 6.99363 5.69358 7.6353C5.08554 8.22705 4.61759 8.94744 4.32406 9.74363C4.07248 10.3903 3.77426 11.3603 3.69262 13.1486C3.60432 15.082 3.58599 15.662 3.58599 20.557C3.58599 25.452 3.60432 26.032 3.69262 27.9653C3.77426 29.7536 4.07248 30.7236 4.32406 31.3703C4.61729 32.1653 5.08546 32.887 5.69358 33.4786C6.28504 34.087 7.00645 34.5553 7.80118 34.8486C8.44762 35.1003 9.41727 35.3986 11.205 35.4803C13.1376 35.5686 13.7158 35.587 18.6107 35.587C23.5057 35.587 24.0838 35.5686 26.0164 35.4803C27.8042 35.3986 28.7738 35.1003 29.4203 34.8486C30.275 34.5153 30.8864 34.1203 31.5278 33.4786C32.136 32.887 32.6041 32.1653 32.8974 31.3703C33.1489 30.7236 33.4472 29.7536 33.5288 27.9653C33.6171 26.032 33.6354 25.452 33.6354 20.557C33.6354 15.662 33.6171 15.082 33.5288 13.1486C33.4472 11.3603 33.1489 10.3903 32.8974 9.74363C32.5642 8.88863 32.1693 8.27697 31.5278 7.6353C30.9363 7.02708 30.2161 6.55898 29.4203 6.2653C28.7738 6.01363 27.8042 5.7153 26.0164 5.63363ZM16.2699 26.2086C17.5772 26.753 19.0329 26.8265 20.3883 26.4165C21.7437 26.0065 22.9149 25.1385 23.7016 23.9607C24.4884 22.7829 24.842 21.3684 24.702 19.9588C24.562 18.5492 23.9372 17.2319 22.9342 16.232C22.2948 15.5928 21.5217 15.1033 20.6705 14.7989C19.8194 14.4944 18.9113 14.3826 18.0118 14.4713C17.1122 14.5601 16.2435 14.8473 15.4682 15.3122C14.6928 15.7771 14.0302 16.4082 13.528 17.1601C13.0258 17.9119 12.6964 18.7658 12.5637 19.6602C12.431 20.5547 12.4981 21.4675 12.7603 22.3328C13.0226 23.1982 13.4733 23.9946 14.0802 24.6648C14.687 25.335 15.4349 25.8623 16.2699 26.2086ZM11.9497 13.8936C12.8245 13.0186 13.8629 12.3245 15.0058 11.8509C16.1487 11.3773 17.3737 11.1336 18.6107 11.1336C19.8478 11.1336 21.0727 11.3773 22.2156 11.8509C23.3585 12.3245 24.397 13.0186 25.2717 13.8936C26.1464 14.7687 26.8403 15.8075 27.3137 16.9508C27.7871 18.0941 28.0308 19.3195 28.0308 20.557C28.0308 21.7945 27.7871 23.0198 27.3137 24.1631C26.8403 25.3064 26.1464 26.3453 25.2717 27.2203C23.5051 28.9875 21.1091 29.9803 18.6107 29.9803C16.1124 29.9803 13.7163 28.9875 11.9497 27.2203C10.1831 25.4531 9.19065 23.0562 9.19065 20.557C9.19065 18.0577 10.1831 15.6609 11.9497 13.8936ZM30.12 12.537C30.3368 12.3324 30.5103 12.0864 30.6303 11.8136C30.7504 11.5407 30.8145 11.2466 30.8188 10.9485C30.8231 10.6505 30.7677 10.3545 30.6556 10.0783C30.5436 9.80209 30.3773 9.55115 30.1666 9.34036C29.9559 9.12958 29.705 8.96323 29.4289 8.85116C29.1528 8.7391 28.857 8.68359 28.559 8.68794C28.261 8.69228 27.967 8.75639 27.6942 8.87646C27.4215 8.99653 27.1756 9.17012 26.9711 9.38697C26.5734 9.80868 26.3557 10.3688 26.3642 10.9485C26.3726 11.5282 26.6066 12.0818 27.0164 12.4917C27.4262 12.9016 27.9795 13.1357 28.559 13.1441C29.1385 13.1526 29.6984 12.9348 30.12 12.537Z" fill="white"/>
</g>
<defs>
<clipPath id="clip0_12_191">
<rect width="39.986" height="40" fill="white" transform="translate(0.283813 0.223633)"/>
</clipPath>
</defs>
</svg>
