<svg width="68" height="76" viewBox="0 0 68 76" fill="none" xmlns="http://www.w3.org/2000/svg">
<path d="M48.0781 16.2019V10.4648C48.0781 9.96757 47.5668 9.69296 47.2215 9.99726L17.2855 36.1297C17.0312 36.3508 16.8254 36.6338 16.6838 36.9573C16.5422 37.2808 16.4686 37.6362 16.4686 37.9963C16.4686 38.3564 16.5422 38.7118 16.6838 39.0352C16.8254 39.3587 17.0312 39.6418 17.2855 39.8629L47.2215 65.9953C47.5734 66.2996 48.0781 66.025 48.0781 65.5277V59.7906C48.0781 59.4269 47.9254 59.0781 47.673 58.8555L23.7668 38L47.673 17.1371C47.9254 16.9144 48.0781 16.5656 48.0781 16.2019Z" fill="black"/>
</svg>
