<svg width="107" height="102" viewBox="0 0 107 102" fill="none" xmlns="http://www.w3.org/2000/svg">
<g id="Group 6">
<g id="Path" filter="url(#filter0_d_108_99)">
<path fill-rule="evenodd" clip-rule="evenodd" d="M28.7391 16.6003V46.5279L52.0548 59.8813L78.381 44.3118V14.3843" fill="#FF9271"/>
</g>
<path id="Path_2" d="M52.0548 29.9537V59.8813L78.381 44.3118V14.3843L52.0548 29.9537V29.9537Z" fill="#DF5C34"/>
<path id="Path_3" d="M28.7391 16.6003L55.7913 1.18054L78.381 14.3843L52.0548 29.9537L28.7391 16.6003V16.6003Z" fill="#F47B56"/>
<path id="Shape" fill-rule="evenodd" clip-rule="evenodd" d="M60.5669 9.78829C58.1551 8.4677 55.4167 7.86447 52.674 8.04964C49.7963 8.10037 46.9849 8.92219 44.532 10.4296C43.2456 11.162 42.2221 12.2814 41.6069 13.629C41.0939 14.7958 41.0939 16.1247 41.6069 17.2915C42.228 18.6151 43.2621 19.7005 44.5534 20.3841C46.1533 21.2885 47.917 21.865 49.7417 22.08C51.7492 22.3579 53.7877 22.3218 55.7842 21.9731C57.6162 21.6944 59.3762 21.0602 60.9654 20.1062C61.517 19.7689 62.0302 19.3723 62.4956 18.9233C62.8486 18.5885 63.1637 18.2157 63.4351 17.8117C63.623 17.512 63.7758 17.1916 63.8906 16.8569C63.9702 16.6481 64.0344 16.4338 64.0827 16.2156C64.087 16.1349 64.087 16.054 64.0827 15.9733L61.4423 15.8237L61.3426 16.2726C61.1993 16.7248 60.9561 17.1388 60.6309 17.4839C60.1449 18.0482 59.5704 18.5295 58.9299 18.9091C57.0789 20.0067 54.9602 20.569 52.8092 20.5337C50.6487 20.6251 48.5052 20.1145 46.6173 19.0587C44.8879 18.0397 43.9982 16.7714 43.9982 15.3463C43.984 13.8926 44.8167 12.6409 46.4963 11.5911C48.342 10.4655 50.4561 9.85755 52.617 9.83104C54.6561 9.69673 56.691 10.1492 58.4815 11.135C60.1659 12.1326 60.517 12.9378 59.5349 13.5506C58.815 13.9383 57.9488 13.9383 57.2289 13.5506L52.5957 10.8215L50.5958 12.0685L51.3075 12.496H50.9161C50.5328 12.5173 50.1532 12.5819 49.7844 12.6884C49.322 12.8086 48.8804 12.9984 48.4749 13.2513C47.613 13.6606 47.0603 14.5267 47.0515 15.4816C47.0942 16.3652 47.6635 17.1348 48.7738 17.7903C49.9479 18.4651 51.2851 18.8029 52.6384 18.7665C53.9464 18.7922 55.2356 18.4516 56.3606 17.7832C56.8433 17.5097 57.2458 17.1141 57.5279 16.636C57.6974 16.3789 57.7956 16.0814 57.8125 15.7738C57.7968 15.6439 57.7633 15.5168 57.7129 15.3961L58.2538 15.4389C58.7493 15.4534 59.2446 15.4031 59.727 15.2893C60.3142 15.1706 60.8756 14.9486 61.3853 14.6337C62.46 13.9853 62.9155 13.2157 62.8088 12.3321C62.702 11.4486 61.9476 10.6006 60.5669 9.78829ZM54.3749 14.3059C54.8367 14.5065 55.1697 14.9226 55.2645 15.4175H55.293C55.3003 15.873 55.0378 16.2897 54.624 16.4792C54.0773 16.8025 53.4509 16.9655 52.8162 16.9495C52.1559 16.9648 51.5039 16.7998 50.9302 16.4721C50.4741 16.272 50.1556 15.8477 50.0904 15.3534C50.1011 14.8787 50.3757 14.4497 50.8021 14.2418C51.3214 13.9306 51.9197 13.7772 52.5244 13.8C53.1752 13.8009 53.814 13.9755 54.3749 14.3059Z" fill="#3E2928"/>
</g>
<defs>
<filter id="filter0_d_108_99" x="0.961357" y="0.495388" width="105.197" height="101.053" filterUnits="userSpaceOnUse" color-interpolation-filters="sRGB">
<feFlood flood-opacity="0" result="BackgroundImageFix"/>
<feColorMatrix in="SourceAlpha" type="matrix" values="0 0 0 0 0 0 0 0 0 0 0 0 0 0 0 0 0 0 127 0" result="hardAlpha"/>
<feOffset dy="13.8889"/>
<feGaussianBlur stdDeviation="13.8889"/>
<feColorMatrix type="matrix" values="0 0 0 0 0.209139 0 0 0 0 0.0691446 0 0 0 0 0.478091 0 0 0 0.497159 0"/>
<feBlend mode="normal" in2="BackgroundImageFix" result="effect1_dropShadow_108_99"/>
<feBlend mode="normal" in="SourceGraphic" in2="effect1_dropShadow_108_99" result="shape"/>
</filter>
</defs>
</svg>
