<svg width="418" height="589" viewBox="0 0 418 589" fill="none" xmlns="http://www.w3.org/2000/svg">
<g id="Group 2">
<path id="Path Copy" opacity="0.0991676" d="M-79.245 642.353L-528.256 376.729C-542.551 368.683 -554.804 355.501 -540.875 346.852L-90.2674 86.8897C-83.5126 82.6963 -73.2495 79.9444 -66.3637 83.9543L404.901 357.781C419.197 366.089 421.762 389.231 407.52 397.618L-20.075 641.933C-38.3366 652.537 -60.8353 652.697 -79.245 642.353Z" fill="#6862E6"/>
<path id="Path Copy 2" opacity="0.0991676" d="M-79.245 266.353L-528.256 0.729492C-542.551 -7.31652 -554.804 -20.4994 -540.875 -29.1482L-90.2674 -289.11C-83.5126 -293.304 -73.2494 -296.056 -66.3637 -292.046L404.901 -18.2192C419.197 -9.91114 421.762 13.231 407.52 21.6177L-20.075 265.933C-38.3366 276.537 -60.8353 276.697 -79.245 266.353Z" stroke="#1E1F36"/>
<path id="Path Copy 3" opacity="0.0991676" d="M-79.245 341.353L-528.256 75.7295C-542.551 67.6835 -554.804 54.5006 -540.875 45.8518L-90.2674 -214.11C-83.5126 -218.304 -73.2494 -221.056 -66.3637 -217.046L404.901 56.7808C419.197 65.0889 421.762 88.231 407.52 96.6177L-20.075 340.933C-38.3366 351.537 -60.8353 351.697 -79.245 341.353Z" stroke="#1E1F36"/>
</g>
</svg>
