<svg width="68" height="66" viewBox="0 0 68 66" fill="none" xmlns="http://www.w3.org/2000/svg">
<path d="M19.3488 8.25C16.5723 8.25 13.9095 9.33649 11.9462 11.2705C9.98296 13.2044 8.88 15.8275 8.88 18.5625V47.4375C8.88 50.1725 9.98296 52.7956 11.9462 54.7295C13.9095 56.6635 16.5723 57.75 19.3488 57.75H48.6613C51.4377 57.75 54.1005 56.6635 56.0638 54.7295C58.0271 52.7956 59.13 50.1725 59.13 47.4375V18.5625C59.13 15.8275 58.0271 13.2044 56.0638 11.2705C54.1005 9.33649 51.4377 8.25 48.6613 8.25H19.3488ZM13.0675 18.5625C13.0675 16.9215 13.7293 15.3477 14.9072 14.1873C16.0852 13.0269 17.6829 12.375 19.3488 12.375H48.6613C50.3271 12.375 51.9248 13.0269 53.1028 14.1873C54.2807 15.3477 54.9425 16.9215 54.9425 18.5625V47.4375C54.9425 49.0785 54.2807 50.6523 53.1028 51.8127C51.9248 52.9731 50.3271 53.625 48.6613 53.625H19.3488C17.6829 53.625 16.0852 52.9731 14.9072 51.8127C13.7293 50.6523 13.0675 49.0785 13.0675 47.4375V18.5625ZM45.9561 28.2728C46.3493 27.8855 46.5701 27.3602 46.5701 26.8125C46.5701 26.2648 46.3493 25.7395 45.9561 25.3522C45.563 24.965 45.0298 24.7474 44.4738 24.7474C43.9178 24.7474 43.3845 24.965 42.9914 25.3522L29.8175 38.3336L25.0186 33.6022C24.6255 33.215 24.0923 32.9974 23.5363 32.9974C22.9803 32.9974 22.447 33.215 22.0539 33.6022C21.6607 33.9895 21.4399 34.5148 21.4399 35.0625C21.4399 35.6102 21.6607 36.1355 22.0539 36.5228L28.3351 42.7103C28.5296 42.9023 28.7607 43.0547 29.015 43.1587C29.2694 43.2627 29.5421 43.3162 29.8175 43.3162C30.0929 43.3162 30.3656 43.2627 30.62 43.1587C30.8743 43.0547 31.1054 42.9023 31.2999 42.7103L45.9561 28.2728Z" fill="black"/>
</svg>
