<svg width="41" height="41" viewBox="0 0 41 41" fill="none" xmlns="http://www.w3.org/2000/svg">
<g clip-path="url(#clip0_12_197)">
<path d="M34.2852 34.3061H28.3606V25.0244C28.3606 22.8111 28.321 19.9619 25.2791 19.9619C22.1933 19.9619 21.7212 22.3734 21.7212 24.8633V34.3055H15.7967V15.2186H21.4842V17.827H21.5639C22.1331 16.8534 22.9556 16.0525 23.9438 15.5095C24.932 14.9666 26.049 14.7019 27.1757 14.7437C33.1806 14.7437 34.2877 18.695 34.2877 23.8353L34.2852 34.3061ZM9.11153 12.6097C7.21266 12.61 5.67304 11.0703 5.67273 9.17076C5.67242 7.27123 7.21141 5.73108 9.11028 5.73076C11.0091 5.73029 12.5488 7.26998 12.5491 9.16951C12.5492 10.0817 12.1872 10.9566 11.5425 11.6018C10.8978 12.2469 10.0234 12.6095 9.11153 12.6097ZM12.0739 34.3062H6.14304V15.2186H12.0738V34.3061L12.0739 34.3062ZM37.2388 0.226544H3.16595C1.55558 0.208419 0.234952 1.49889 0.215271 3.10983V37.3369C0.234327 38.9486 1.5548 40.2403 3.1658 40.2234H37.2388C38.8533 40.2434 40.1789 38.9517 40.2012 37.3369V3.10717C40.1783 1.49311 38.8525 0.202794 37.2388 0.223888" fill="white"/>
</g>
<defs>
<clipPath id="clip0_12_197">
<rect width="39.986" height="40" fill="white" transform="translate(0.215454 0.223633)"/>
</clipPath>
</defs>
</svg>
