<svg width="57" height="70" viewBox="0 0 57 70" fill="none" xmlns="http://www.w3.org/2000/svg">
<path d="M42.622 33.2773L17.5286 9.20801C17.463 9.14461 17.3842 9.10521 17.3013 9.09434C17.2183 9.08346 17.1345 9.10155 17.0595 9.14653C16.9845 9.1915 16.9214 9.26154 16.8773 9.34859C16.8333 9.43565 16.8102 9.53619 16.8106 9.63867V14.9229C16.8106 15.2578 16.9386 15.5791 17.1501 15.7842L37.1892 35L17.1501 54.2158C16.933 54.4209 16.8106 54.7422 16.8106 55.0771V60.3613C16.8106 60.8193 17.2392 61.0723 17.5286 60.792L42.622 36.7227C42.8353 36.5183 43.0078 36.257 43.1265 35.9585C43.2451 35.66 43.3068 35.3322 43.3068 35C43.3068 34.6678 43.2451 34.34 43.1265 34.0415C43.0078 33.743 42.8353 33.4817 42.622 33.2773Z" fill="black"/>
</svg>
