<svg width="50" height="41" viewBox="0 0 50 41" fill="none" xmlns="http://www.w3.org/2000/svg">
<g clip-path="url(#clip0_12_195)">
<path d="M49.2208 5.09435C47.3867 5.90713 45.4414 6.44063 43.4494 6.67713C45.5243 5.43311 47.1174 3.46316 47.8676 1.11598C45.8951 2.28686 43.7372 3.11182 41.4868 3.55521C39.6538 1.60172 37.0425 0.380859 34.1522 0.380859C28.6027 0.380859 24.1035 4.88153 24.1035 10.4325C24.1035 11.2205 24.1924 11.9876 24.3637 12.7234C16.0125 12.3041 8.60841 8.30239 3.65226 2.22086C2.78749 3.70545 2.29197 5.43234 2.29197 7.27426C2.29197 10.7617 4.06608 13.8383 6.76217 15.641C5.16646 15.591 3.60586 15.1598 2.21066 14.3835C2.21008 14.4256 2.21008 14.4677 2.21008 14.51C2.21008 19.3803 5.67375 23.4431 10.2704 24.3665C8.79072 24.7691 7.23862 24.828 5.73268 24.5388C7.01127 28.5322 10.7223 31.4383 15.1192 31.5196C11.6803 34.2155 7.34742 35.8226 2.63979 35.8226C1.82859 35.8226 1.02887 35.7749 0.242737 35.6821C4.6896 38.5342 9.97138 40.1983 15.6459 40.1983C34.1288 40.1983 44.2357 24.8813 44.2357 11.5983C44.2357 11.1623 44.2262 10.7288 44.2066 10.2978C46.1739 8.87518 47.8718 7.11314 49.2208 5.09435Z" fill="white"/>
</g>
<defs>
<clipPath id="clip0_12_195">
<rect width="48.9828" height="40" fill="white" transform="translate(0.240356 0.223633)"/>
</clipPath>
</defs>
</svg>
